<svg width="130" height="161" viewBox="0 0 130 161" fill="none" xmlns="http://www.w3.org/2000/svg">
<g clip-path="url(#clip0_3_2)">
<path d="M13.454 159.56L13.4534 159.56C9.8504 159.608 6.60944 157.902 4.26024 155.443C1.90541 152.979 0.495275 149.81 0.500012 147.011L0.500012 147.011C0.527873 126.371 0.527706 105.733 0.527538 85.0963C0.527346 61.2851 0.527153 37.4744 0.570012 13.6609L0.570012 13.6607C0.579649 6.25953 6.31319 0.579294 13.7312 0.560001C47.8603 0.480003 81.9896 0.490003 116.119 0.550002C120.105 0.559744 123.429 1.99005 125.759 4.4152C128.092 6.84207 129.46 10.298 129.47 14.4112C129.505 29.6277 129.496 44.8437 129.488 60.0573C129.484 66.8187 129.48 73.5797 129.48 80.34C129.48 86.5234 129.482 92.7076 129.483 98.892C129.487 114.352 129.491 129.813 129.47 145.269C129.465 150.142 128.285 153.642 125.99 155.93C123.694 158.217 120.193 159.38 115.35 159.38C106.374 159.38 97.3968 159.364 88.4187 159.348C63.4326 159.303 38.4399 159.258 13.454 159.56Z" fill="#1F2937" stroke="#374151"/>
<path d="M69.42 137.83C53.11 136.73 39.89 129.71 30.22 116.52C27.11 112.28 25.89 107.19 27.89 101.87C28.9 99.19 30.64 97.24 33.6 97C36.41 96.77 37.6 98.95 38.7 101.05C43.19 109.56 48.36 117.21 59.14 118.32C62.22 118.64 65.13 118.31 67.82 116.81C71.46 114.77 72.83 111.52 71.9 107.54C71.04 103.85 68.36 101.95 64.63 101.95C59.97 101.95 55.39 101.67 50.86 100.39C24.81 93.04 14.52 61.01 31.08 39.34C49.18 15.64 84.22 15.62 104.43 39.88C107.54 43.61 104.76 46.18 102.53 48.41C98.52 52.42 93.6 55.29 88.6 57.91C83.18 60.76 77.58 63.25 72.15 66.07C69.9 67.23 68.31 67.38 66.75 65.02C65.57 63.24 63.82 62.48 61.55 63.56C60.3 64.15 59.88 64.9 59.82 66.2C59.7 69.02 61.97 69.41 63.76 69.87C68.57 71.09 73.54 71.72 78.28 73.13C90.93 76.9 101.64 83.27 104.84 97.22C109.13 115.91 96.94 133.51 77.87 136.85C75.1 137.33 72.34 138.14 69.42 137.83Z" fill="#1D4ED8"/>
</g>
<defs>
<clipPath id="clip0_3_2">
<rect width="129.99" height="160.07" fill="white"/>
</clipPath>
</defs>
</svg>
