<svg width="130" height="161" viewBox="0 0 130 161" fill="none" xmlns="http://www.w3.org/2000/svg">
<path d="M69.42 137.83C53.11 136.73 39.89 129.71 30.22 116.52C27.11 112.28 25.89 107.19 27.89 101.87C28.9 99.19 30.64 97.24 33.6 97C36.41 96.77 37.6 98.95 38.7 101.05C43.19 109.56 48.36 117.21 59.14 118.32C62.22 118.64 65.13 118.31 67.82 116.81C71.46 114.77 72.83 111.52 71.9 107.54C71.04 103.85 68.36 101.95 64.63 101.95C59.97 101.95 55.39 101.67 50.86 100.39C24.81 93.04 14.52 61.01 31.08 39.34C49.18 15.64 84.22 15.62 104.43 39.88C107.54 43.61 104.76 46.18 102.53 48.41C98.52 52.42 93.6 55.29 88.6 57.91C83.18 60.76 77.58 63.25 72.15 66.07C69.9 67.23 68.31 67.38 66.75 65.02C65.57 63.24 63.82 62.48 61.55 63.56C60.3 64.15 59.88 64.9 59.82 66.2C59.7 69.02 61.97 69.41 63.76 69.87C68.57 71.09 73.54 71.72 78.28 73.13C90.93 76.9 101.64 83.27 104.84 97.22C109.13 115.91 96.94 133.51 77.87 136.85C75.1 137.33 72.34 138.14 69.42 137.83Z" fill="white"/>
</svg>
